<svg version="1.1" xmlns="http://www.w3.org/2000/svg" viewBox="0 0 1001.336181640625 589.0228729248047" width="1001.336181640625" height="589.0228729248047">
  <!-- svg-source:excalidraw -->
  
  <defs>
    <style>
      @font-face {
        font-family: "Virgil";
        src: url("https://unpkg.com/@zsviczian/excalidraw@0.11.0-obsidian-17/dist/excalidraw-assets/Virgil.woff2");
      }
      @font-face {
        font-family: "Cascadia";
        src: url("https://unpkg.com/@zsviczian/excalidraw@0.11.0-obsidian-17/dist/excalidraw-assets/Cascadia.woff2");
      }
    </style>
  </defs>
  <rect x="0" y="0" width="1001.336181640625" height="589.0228729248047" fill="#ffffff"/><g transform="translate(347.00152587890625 82.26893615722656) rotate(0 313.0386047363281 111.06595611572266)" stroke="none"><path fill="#000000" d="M 1.53,0.30 Q 1.53,0.30 1.06,2.48 0.58,4.66 -0.30,7.21 -1.19,9.76 -2.22,12.76 -3.25,15.77 -4.34,19.22 -5.44,22.67 -6.33,27.13 -7.22,31.59 -8.26,37.01 -9.31,42.43 -10.18,48.64 -11.06,54.85 -11.88,61.43 -12.69,68.01 -13.69,75.20 -14.70,82.38 -15.34,90.64 -15.98,98.90 -16.25,106.77 -16.53,114.64 -16.43,123.00 -16.32,131.36 -15.63,139.02 -14.93,146.69 -13.77,154.31 -12.60,161.92 -10.59,169.03 -8.58,176.15 -5.77,182.62 -2.97,189.09 0.36,194.41 3.70,199.74 7.70,204.13 11.69,208.52 16.37,211.87 21.06,215.21 28.85,218.13 36.65,221.04 41.06,222.29 45.48,223.55 51.22,224.29 56.96,225.03 64.18,225.13 71.39,225.22 79.00,224.40 86.62,223.57 94.87,222.13 103.13,220.69 111.86,218.55 120.60,216.42 128.44,213.98 136.29,211.55 143.31,208.78 150.34,206.01 156.60,203.30 162.87,200.59 168.36,197.92 173.84,195.25 178.35,192.81 182.85,190.37 186.30,188.45 189.75,186.54 192.07,185.08 194.38,183.63 195.77,182.86 197.16,182.09 198.62,182.99 200.08,183.89 200.03,185.20 199.99,186.52 199.62,188.51 199.25,190.49 199.07,193.44 198.88,196.39 198.78,199.63 198.67,202.87 199.05,206.12 199.42,209.38 200.21,212.92 201.01,216.46 202.20,220.35 203.40,224.25 204.98,228.05 206.56,231.86 208.74,235.84 210.92,239.83 213.76,243.43 216.60,247.03 219.77,250.53 222.94,254.03 227.08,257.44 231.21,260.85 235.97,263.58 240.72,266.30 245.99,268.55 251.26,270.79 256.74,272.39 262.22,273.99 267.99,274.88 273.77,275.77 279.91,276.15 286.06,276.53 293.67,276.26 301.27,275.99 308.64,275.22 316.01,274.45 323.50,273.25 330.99,272.05 338.73,270.24 346.48,268.43 354.37,266.34 362.25,264.26 370.37,261.42 378.50,258.58 386.76,255.40 395.03,252.23 402.90,248.92 410.78,245.60 418.72,242.23 426.67,238.85 433.74,235.45 440.81,232.06 447.11,229.08 453.41,226.10 458.47,223.53 463.54,220.96 467.42,218.79 471.31,216.61 473.61,215.25 475.92,213.89 477.14,213.17 478.35,212.45 478.60,212.37 478.85,212.30 479.04,212.23 479.24,212.17 479.44,212.15 479.64,212.13 479.83,212.16 480.03,212.20 480.22,212.27 480.40,212.35 480.57,212.47 480.73,212.59 480.86,212.75 480.98,212.90 481.07,213.08 481.16,213.26 481.20,213.46 481.24,213.66 481.23,213.86 481.23,214.06 481.17,214.25 481.12,214.44 481.02,214.62 480.92,214.79 480.78,214.94 480.64,215.09 480.47,215.19 480.31,215.30 479.29,216.92 478.27,218.54 477.55,219.98 476.83,221.41 476.27,223.21 475.71,225.01 474.98,227.36 474.24,229.72 473.93,232.12 473.62,234.52 473.47,237.30 473.32,240.07 473.24,242.78 473.17,245.50 473.56,248.30 473.95,251.09 474.75,253.99 475.55,256.89 476.94,259.57 478.32,262.24 479.80,264.95 481.27,267.66 483.37,270.25 485.46,272.85 488.08,275.47 490.70,278.09 493.95,280.48 497.19,282.86 500.73,284.96 504.27,287.06 507.88,288.35 511.48,289.64 515.40,290.64 519.33,291.63 523.55,292.04 527.77,292.45 532.41,292.63 537.05,292.81 542.22,292.24 547.39,291.66 553.05,290.34 558.71,289.01 564.62,287.35 570.54,285.70 576.73,283.48 582.93,281.25 589.06,278.78 595.19,276.31 600.80,273.31 606.41,270.32 611.63,267.09 616.85,263.86 621.19,260.13 625.53,256.40 628.88,252.66 632.22,248.93 634.69,244.79 637.16,240.65 638.85,236.33 640.54,232.00 641.24,227.41 641.94,222.83 641.59,217.90 641.24,212.98 640.02,207.64 638.80,202.31 636.75,196.12 634.71,189.93 631.69,183.87 628.66,177.80 624.77,171.52 620.87,165.24 615.96,158.88 611.05,152.53 605.27,146.35 599.49,140.18 592.90,134.29 586.31,128.41 579.14,122.63 571.98,116.85 563.95,111.81 555.93,106.76 547.28,102.00 538.62,97.23 529.52,93.25 520.41,89.27 510.87,85.84 501.34,82.40 491.19,79.64 481.05,76.88 470.62,74.61 460.20,72.35 448.12,70.07 436.04,67.79 424.35,65.95 412.67,64.11 400.95,62.90 389.23,61.68 377.47,60.73 365.71,59.77 353.93,58.93 342.15,58.09 330.81,57.51 319.48,56.93 308.33,56.69 297.18,56.44 286.54,56.34 275.90,56.23 265.69,56.19 255.48,56.15 245.90,56.35 236.33,56.55 227.67,56.85 219.01,57.15 211.62,57.50 204.22,57.85 198.24,58.21 192.26,58.58 187.76,58.95 183.26,59.33 180.06,59.70 176.85,60.08 175.10,60.29 173.35,60.50 172.32,59.82 171.28,59.15 171.02,57.69 170.75,56.23 171.20,54.45 171.66,52.67 172.60,50.80 173.54,48.92 174.37,46.96 175.21,45.01 175.79,42.93 176.37,40.86 176.86,38.67 177.35,36.47 177.79,34.02 178.22,31.57 178.64,29.00 179.05,26.43 179.23,24.07 179.41,21.72 179.49,18.98 179.57,16.23 179.61,13.53 179.65,10.83 179.66,7.50 179.68,4.16 179.69,0.78 179.70,-2.60 179.71,-6.22 179.71,-9.85 179.50,-13.54 179.29,-17.23 179.19,-20.80 179.10,-24.38 179.06,-27.86 179.03,-31.35 179.23,-34.63 179.43,-37.91 179.97,-40.89 180.50,-43.86 181.17,-46.46 181.84,-49.05 182.57,-51.47 183.29,-53.89 184.30,-55.89 185.30,-57.89 186.37,-59.64 187.44,-61.39 188.83,-63.06 190.21,-64.74 192.27,-65.98 194.32,-67.23 196.98,-68.19 199.65,-69.15 203.44,-69.99 207.23,-70.83 211.48,-71.41 215.74,-71.98 221.28,-72.45 226.81,-72.91 233.34,-73.10 239.87,-73.30 246.58,-73.38 253.29,-73.46 260.10,-73.28 266.91,-73.09 273.52,-72.79 280.13,-72.50 286.06,-71.71 291.98,-70.92 297.33,-70.15 302.67,-69.38 304.94,-69.05 307.21,-68.72 307.41,-68.66 307.61,-68.60 307.78,-68.47 307.96,-68.34 308.08,-68.17 308.20,-68.00 308.26,-67.79 308.32,-67.59 308.31,-67.38 308.31,-67.16 308.23,-66.97 308.16,-66.77 308.02,-66.60 307.89,-66.44 307.71,-66.32 307.53,-66.21 307.32,-66.16 307.11,-66.11 306.90,-66.13 306.69,-66.15 306.50,-66.23 306.30,-66.32 306.14,-66.46 305.99,-66.61 305.88,-66.79 305.78,-66.98 305.74,-67.19 305.70,-67.40 305.73,-67.61 305.76,-67.82 305.86,-68.01 305.96,-68.20 306.11,-68.35 306.26,-68.50 306.45,-68.59 306.64,-68.68 306.85,-68.71 307.06,-68.74 307.27,-68.69 307.48,-68.65 307.67,-68.55 307.85,-68.44 307.99,-68.28 308.13,-68.12 308.21,-67.93 308.30,-67.73 308.31,-67.52 308.33,-67.31 308.27,-67.10 308.22,-66.89 308.11,-66.71 307.99,-66.54 307.82,-66.40 307.66,-66.27 307.46,-66.20 307.26,-66.13 307.04,-66.13 306.83,-66.12 306.83,-66.12 306.83,-66.12 304.56,-66.45 302.29,-66.77 296.96,-67.54 291.63,-68.31 285.82,-69.09 280.01,-69.86 273.43,-70.16 266.84,-70.46 260.08,-70.64 253.32,-70.82 246.64,-70.74 239.95,-70.65 233.49,-70.46 227.03,-70.26 221.57,-69.80 216.10,-69.34 211.95,-68.78 207.81,-68.21 204.18,-67.41 200.56,-66.60 198.13,-65.74 195.70,-64.88 194.00,-63.90 192.30,-62.92 191.03,-61.42 189.77,-59.91 188.71,-58.31 187.65,-56.70 186.73,-54.91 185.81,-53.13 185.10,-50.76 184.39,-48.39 183.74,-45.89 183.09,-43.40 182.58,-40.57 182.06,-37.74 181.86,-34.56 181.66,-31.38 181.71,-27.91 181.75,-24.45 181.84,-20.91 181.93,-17.38 182.15,-13.61 182.37,-9.85 182.38,-6.22 182.38,-2.59 182.38,0.79 182.37,4.18 182.37,7.52 182.36,10.86 182.34,13.58 182.32,16.30 182.26,19.11 182.20,21.91 182.04,24.38 181.88,26.86 181.51,29.45 181.13,32.05 180.74,34.57 180.36,37.09 179.93,39.37 179.51,41.66 178.97,43.96 178.44,46.26 177.68,48.41 176.93,50.56 176.17,52.17 175.42,53.78 174.55,55.74 173.68,57.69 175.11,57.58 176.54,57.47 179.79,57.09 183.05,56.71 187.58,56.33 192.10,55.96 198.10,55.59 204.10,55.22 211.51,54.88 218.92,54.53 227.60,54.22 236.28,53.92 245.88,53.72 255.49,53.52 265.70,53.56 275.92,53.61 286.58,53.71 297.24,53.82 308.42,54.06 319.61,54.31 330.97,54.89 342.34,55.47 354.13,56.31 365.92,57.15 377.71,58.11 389.50,59.07 401.29,60.29 413.08,61.52 424.80,63.37 436.52,65.21 448.64,67.50 460.76,69.78 471.25,72.06 481.74,74.34 491.98,77.14 502.23,79.93 511.84,83.40 521.46,86.87 530.68,90.90 539.89,94.93 548.61,99.73 557.33,104.54 565.48,109.67 573.63,114.81 580.84,120.63 588.06,126.45 594.73,132.42 601.40,138.38 607.27,144.65 613.13,150.92 618.11,157.39 623.10,163.85 627.06,170.24 631.01,176.63 634.11,182.87 637.21,189.11 639.28,195.42 641.36,201.72 642.61,207.26 643.86,212.79 644.20,218.01 644.54,223.22 643.76,228.08 642.99,232.95 641.20,237.47 639.42,242.00 636.80,246.34 634.18,250.68 630.71,254.53 627.24,258.39 622.74,262.24 618.24,266.09 612.94,269.36 607.65,272.64 601.91,275.69 596.17,278.74 589.99,281.23 583.82,283.73 577.53,285.98 571.24,288.23 565.28,289.90 559.31,291.57 553.50,292.92 547.68,294.28 542.31,294.86 536.95,295.44 532.23,295.26 527.51,295.07 523.10,294.63 518.68,294.18 514.63,293.16 510.59,292.13 506.76,290.73 502.93,289.34 499.27,287.17 495.62,285.00 492.22,282.49 488.82,279.98 486.10,277.25 483.38,274.53 481.14,271.75 478.91,268.96 477.41,266.23 475.90,263.50 474.39,260.57 472.89,257.65 472.02,254.57 471.16,251.50 470.72,248.47 470.28,245.45 470.31,242.69 470.33,239.94 470.43,237.06 470.52,234.17 470.79,231.49 471.05,228.82 471.67,226.42 472.29,224.03 472.86,221.86 473.43,219.69 474.33,217.96 475.24,216.23 476.20,215.10 477.15,213.96 478.00,213.13 478.85,212.30 479.04,212.23 479.24,212.17 479.44,212.15 479.64,212.13 479.83,212.16 480.03,212.20 480.22,212.27 480.40,212.35 480.57,212.47 480.73,212.59 480.86,212.74 480.98,212.90 481.07,213.08 481.16,213.26 481.20,213.46 481.24,213.66 481.23,213.86 481.23,214.06 481.17,214.25 481.12,214.44 481.02,214.62 480.92,214.79 480.78,214.94 480.64,215.09 480.47,215.19 480.31,215.30 479.97,215.28 479.64,215.27 478.45,215.71 477.25,216.15 474.92,217.53 472.59,218.90 468.66,221.10 464.73,223.31 459.63,225.89 454.53,228.48 448.24,231.45 441.94,234.43 434.82,237.85 427.70,241.26 419.75,244.64 411.80,248.03 403.88,251.35 395.97,254.68 387.67,257.87 379.36,261.06 371.14,263.93 362.92,266.80 355.00,268.89 347.08,270.99 339.24,272.82 331.40,274.65 323.84,275.86 316.28,277.07 308.82,277.84 301.36,278.62 293.63,278.89 285.90,279.16 279.63,278.77 273.36,278.38 267.42,277.45 261.48,276.53 255.85,274.88 250.23,273.23 244.81,270.92 239.40,268.60 234.46,265.76 229.52,262.91 225.24,259.37 220.96,255.84 217.72,252.27 214.48,248.70 211.50,244.92 208.53,241.15 206.27,237.04 204.01,232.93 202.36,229.01 200.71,225.09 199.45,221.10 198.19,217.11 197.32,213.43 196.45,209.74 195.99,206.28 195.54,202.82 195.55,199.54 195.56,196.25 195.64,193.10 195.71,189.95 196.79,187.43 197.86,184.90 196.82,185.38 195.78,185.86 193.40,187.35 191.03,188.83 187.57,190.76 184.10,192.68 179.55,195.14 174.99,197.61 169.45,200.31 163.91,203.00 157.61,205.73 151.30,208.45 144.18,211.26 137.07,214.06 129.15,216.51 121.22,218.97 112.40,221.12 103.58,223.28 95.24,224.73 86.90,226.18 79.13,227.02 71.36,227.85 63.99,227.74 56.62,227.63 50.69,226.85 44.76,226.08 40.24,224.79 35.72,223.50 27.63,220.43 19.54,217.36 14.65,213.83 9.75,210.30 5.62,205.72 1.48,201.14 -1.95,195.64 -5.39,190.14 -8.25,183.50 -11.11,176.86 -13.15,169.59 -15.20,162.32 -16.38,154.63 -17.56,146.93 -18.26,139.16 -18.96,131.39 -19.06,122.97 -19.17,114.55 -18.89,106.62 -18.62,98.69 -17.97,90.35 -17.33,82.01 -16.33,74.85 -15.33,67.68 -14.52,61.08 -13.72,54.48 -12.84,48.20 -11.96,41.93 -10.92,36.49 -9.89,31.06 -8.98,26.45 -8.08,21.84 -7.00,18.36 -5.92,14.87 -4.92,11.85 -3.92,8.82 -3.13,6.45 -2.33,4.07 -1.93,1.88 -1.53,-0.30 -1.47,-0.48 -1.41,-0.66 -1.31,-0.82 -1.21,-0.98 -1.07,-1.11 -0.94,-1.24 -0.78,-1.33 -0.61,-1.43 -0.43,-1.48 -0.25,-1.54 -0.06,-1.54 0.11,-1.55 0.30,-1.52 0.48,-1.48 0.65,-1.40 0.82,-1.32 0.97,-1.20 1.12,-1.08 1.23,-0.93 1.34,-0.78 1.42,-0.61 1.49,-0.44 1.52,-0.25 1.56,-0.06 1.54,0.11 1.53,0.30 1.53,0.30 L 1.53,0.30 Z"/></g><g transform="translate(163.6666259765625 254.1929473876953) rotate(0 1.141082763671875 57.05442810058594)" stroke="none"><path fill="#000000" d="M 2.61,0.52 Q 2.61,0.52 2.41,1.61 2.21,2.71 1.81,4.28 1.40,5.84 0.99,6.86 0.58,7.87 0.01,9.06 -0.56,10.24 -1.02,11.31 -1.48,12.38 -1.79,13.43 -2.11,14.48 -2.46,15.63 -2.82,16.78 -3.25,17.76 -3.69,18.74 -4.33,20.79 -4.98,22.85 -5.64,24.46 -6.30,26.07 -6.74,27.86 -7.18,29.64 -7.79,31.32 -8.40,33.00 -8.80,34.20 -9.20,35.40 -9.34,37.31 -9.49,39.23 -9.87,40.42 -10.25,41.61 -10.47,42.93 -10.70,44.25 -10.77,45.76 -10.84,47.26 -11.26,48.89 -11.69,50.53 -12.07,52.04 -12.44,53.56 -12.71,54.65 -12.98,55.75 -13.06,57.42 -13.14,59.10 -13.46,61.25 -13.78,63.40 -14.17,64.96 -14.55,66.52 -14.91,67.92 -15.28,69.32 -15.35,70.49 -15.43,71.67 -15.43,72.83 -15.42,73.98 -15.42,75.44 -15.41,76.89 -15.42,78.24 -15.43,79.58 -15.42,80.95 -15.41,82.31 -15.40,83.47 -15.39,84.63 -15.38,85.77 -15.37,86.92 -15.36,88.06 -15.35,89.20 -15.34,90.34 -15.34,91.48 -15.86,90.54 -16.38,89.60 -15.31,91.05 -14.24,92.50 -13.64,93.84 -13.04,95.18 -12.13,96.08 -11.22,96.98 -10.28,98.26 -9.34,99.55 -8.00,100.89 -6.66,102.23 -5.42,103.46 -4.19,104.68 -3.39,105.52 -2.59,106.36 -1.46,107.10 -0.32,107.84 0.90,108.04 2.13,108.25 3.12,109.08 4.11,109.90 5.21,110.25 6.31,110.59 7.44,110.08 8.57,109.56 10.45,110.42 12.34,111.28 13.49,110.80 14.65,110.32 15.72,110.33 16.79,110.34 18.73,109.99 20.68,109.64 21.28,109.68 21.89,109.72 22.45,109.95 23.01,110.18 23.46,110.57 23.92,110.97 24.23,111.49 24.54,112.02 24.66,112.61 24.79,113.20 24.71,113.80 24.64,114.41 24.38,114.95 24.12,115.50 23.70,115.94 23.28,116.37 22.74,116.65 22.20,116.93 21.61,117.02 21.01,117.11 20.41,117.01 19.81,116.91 19.28,116.62 18.75,116.33 18.33,115.88 17.92,115.44 17.67,114.89 17.42,114.33 17.37,113.73 17.31,113.13 17.44,112.54 17.58,111.95 17.90,111.43 18.21,110.91 18.68,110.53 19.15,110.14 19.71,109.92 20.28,109.70 20.88,109.68 21.49,109.65 22.07,109.82 22.65,109.98 23.15,110.33 23.65,110.67 24.01,111.16 24.37,111.65 24.56,112.22 24.75,112.80 24.74,113.41 24.73,114.01 24.53,114.58 24.34,115.16 23.96,115.63 23.59,116.11 23.09,116.45 22.58,116.78 22.00,116.94 21.41,117.10 21.41,117.10 21.41,117.10 19.81,117.46 18.20,117.82 17.02,117.84 15.84,117.87 14.47,117.87 13.10,117.88 11.78,117.84 10.47,117.80 8.74,117.46 7.01,117.12 5.69,117.08 4.36,117.04 3.19,116.65 2.02,116.25 0.53,115.50 -0.95,114.74 -2.15,114.56 -3.35,114.38 -4.87,113.23 -6.39,112.07 -7.44,111.04 -8.49,110.01 -9.61,109.30 -10.73,108.59 -11.61,107.66 -12.50,106.74 -13.21,105.68 -13.92,104.62 -15.14,103.40 -16.35,102.18 -16.92,101.27 -17.48,100.35 -18.43,98.97 -19.39,97.59 -20.08,96.56 -20.77,95.53 -21.73,93.50 -22.69,91.48 -22.68,90.34 -22.67,89.20 -22.67,88.06 -22.66,86.92 -22.65,85.77 -22.64,84.63 -22.62,83.47 -22.61,82.31 -22.60,80.95 -22.59,79.58 -22.60,78.24 -22.61,76.89 -22.61,75.42 -22.60,73.96 -22.57,72.67 -22.54,71.38 -22.44,69.93 -22.33,68.47 -21.99,67.31 -21.64,66.15 -21.26,64.32 -20.88,62.50 -20.59,61.28 -20.31,60.06 -20.30,58.80 -20.29,57.53 -20.19,56.15 -20.08,54.77 -19.73,53.64 -19.38,52.50 -19.01,51.01 -18.64,49.52 -18.34,48.33 -18.04,47.15 -18.01,45.90 -17.97,44.64 -17.74,43.29 -17.50,41.93 -17.27,40.77 -17.04,39.60 -16.66,38.49 -16.28,37.38 -15.99,36.20 -15.69,35.03 -15.54,33.87 -15.39,32.71 -15.00,31.58 -14.61,30.46 -14.23,29.35 -13.86,28.24 -13.46,26.67 -13.05,25.10 -12.65,23.89 -12.25,22.68 -11.54,21.32 -10.84,19.96 -10.44,18.24 -10.04,16.53 -9.17,15.09 -8.31,13.64 -7.89,12.50 -7.47,11.36 -6.73,9.41 -5.98,7.47 -5.07,6.07 -4.15,4.68 -3.62,3.16 -3.08,1.65 -2.85,0.56 -2.61,-0.52 -2.51,-0.82 -2.41,-1.13 -2.24,-1.40 -2.07,-1.67 -1.84,-1.90 -1.60,-2.12 -1.33,-2.28 -1.05,-2.44 -0.74,-2.53 -0.43,-2.62 -0.11,-2.64 0.20,-2.65 0.51,-2.59 0.83,-2.53 1.12,-2.39 1.41,-2.25 1.66,-2.05 1.91,-1.85 2.10,-1.59 2.30,-1.34 2.42,-1.04 2.55,-0.75 2.60,-0.43 2.66,-0.11 2.63,0.20 2.61,0.52 2.61,0.52 L 2.61,0.52 Z"/></g><g transform="translate(230.6104736328125 293.75071716308594) rotate(0 292.11871337890625 142.63607788085938)" stroke="none"><path fill="#000000" d="M 1.52,0.65 Q 1.52,0.65 0.91,2.20 0.30,3.75 -0.39,5.32 -1.08,6.89 -1.82,8.59 -2.57,10.30 -3.61,12.35 -4.66,14.41 -5.52,16.72 -6.38,19.03 -7.21,21.54 -8.03,24.06 -9.05,27.32 -10.07,30.57 -10.94,33.90 -11.81,37.22 -12.39,41.20 -12.97,45.17 -13.67,49.53 -14.37,53.88 -14.66,58.50 -14.95,63.13 -14.64,68.32 -14.34,73.51 -12.70,79.33 -11.06,85.15 -8.20,91.76 -5.34,98.36 -1.30,105.52 2.73,112.67 8.36,120.27 13.98,127.86 21.16,135.88 28.34,143.90 37.06,152.32 45.78,160.75 55.60,169.13 65.41,177.51 76.56,185.87 87.71,194.23 99.65,202.14 111.59,210.06 124.07,217.13 136.56,224.19 151.46,231.34 166.37,238.49 181.65,244.58 196.93,250.67 212.80,255.88 228.68,261.09 245.25,265.48 261.82,269.88 278.67,273.05 295.52,276.23 313.15,278.23 330.79,280.23 347.46,281.30 364.12,282.37 381.03,282.61 397.94,282.84 414.27,281.85 430.61,280.86 446.27,278.69 461.93,276.53 476.22,273.64 490.52,270.76 503.12,267.14 515.72,263.51 526.95,259.36 538.19,255.21 547.52,250.62 556.84,246.03 564.49,241.26 572.14,236.48 578.19,231.43 584.23,226.38 588.06,221.68 591.88,216.98 594.13,212.85 596.39,208.73 597.31,205.33 598.24,201.94 597.99,199.35 597.73,196.76 596.59,194.23 595.45,191.71 593.08,188.96 590.70,186.20 587.33,183.52 583.96,180.84 579.30,178.19 574.63,175.54 568.73,172.89 562.83,170.23 555.76,167.80 548.69,165.37 540.66,163.03 532.64,160.68 524.01,158.82 515.38,156.96 506.48,155.51 497.58,154.06 488.79,153.23 480.01,152.40 472.13,152.05 464.26,151.70 457.02,151.98 449.77,152.27 443.04,153.47 436.31,154.68 430.63,156.28 424.95,157.87 419.93,159.64 414.91,161.40 410.17,163.45 405.44,165.50 401.24,167.47 397.04,169.43 393.27,171.15 389.50,172.86 386.17,174.46 382.83,176.06 380.14,177.59 377.44,179.13 375.69,180.41 373.93,181.68 372.58,182.91 371.23,184.13 370.60,185.23 369.98,186.33 369.66,188.92 369.34,191.50 369.28,191.80 369.21,192.10 369.05,192.36 368.89,192.63 368.66,192.83 368.42,193.03 368.14,193.14 367.85,193.25 367.54,193.27 367.23,193.29 366.94,193.20 366.64,193.12 366.39,192.95 366.13,192.77 365.94,192.53 365.76,192.28 365.66,191.99 365.56,191.70 365.56,191.39 365.56,191.08 365.66,190.79 365.76,190.50 365.95,190.25 366.13,190.01 366.39,189.84 366.65,189.66 366.94,189.58 367.24,189.50 367.55,189.52 367.85,189.53 368.14,189.65 368.43,189.76 368.66,189.96 368.90,190.16 369.05,190.43 369.21,190.69 369.28,190.99 369.34,191.29 369.31,191.60 369.28,191.91 369.15,192.18 369.02,192.46 368.81,192.69 368.59,192.91 368.32,193.06 368.05,193.20 367.74,193.25 367.44,193.30 367.14,193.25 366.83,193.20 366.56,193.05 366.29,192.91 366.08,192.68 365.86,192.46 365.74,192.18 365.61,191.90 365.57,191.59 365.54,191.29 365.54,191.29 365.54,191.29 366.43,187.88 367.31,184.47 368.34,183.22 369.37,181.98 370.88,180.77 372.39,179.56 374.26,178.20 376.14,176.85 378.92,175.27 381.70,173.69 385.06,172.08 388.42,170.47 392.17,168.76 395.93,167.05 400.16,165.07 404.39,163.09 409.21,161.01 414.03,158.92 419.14,157.13 424.24,155.34 430.05,153.72 435.85,152.09 442.76,150.87 449.67,149.64 457.02,149.36 464.37,149.07 472.31,149.43 480.25,149.79 489.13,150.63 498.00,151.47 506.97,152.93 515.93,154.39 524.65,156.28 533.37,158.16 541.46,160.53 549.55,162.89 556.73,165.36 563.91,167.84 569.92,170.55 575.93,173.26 580.76,176.02 585.60,178.79 589.15,181.64 592.69,184.49 595.27,187.56 597.84,190.63 599.09,193.56 600.34,196.49 600.56,199.54 600.78,202.59 599.74,206.28 598.69,209.98 596.31,214.30 593.92,218.63 589.92,223.51 585.92,228.39 579.73,233.55 573.53,238.71 565.77,243.55 558.00,248.38 548.55,253.03 539.10,257.67 527.77,261.85 516.44,266.04 503.74,269.68 491.04,273.33 476.66,276.23 462.29,279.13 446.53,281.30 430.77,283.48 414.33,284.48 397.90,285.47 380.93,285.23 363.95,284.99 347.22,283.92 330.49,282.84 312.76,280.82 295.04,278.81 278.09,275.61 261.14,272.42 244.50,268.00 227.86,263.58 211.91,258.35 195.95,253.11 180.59,246.99 165.23,240.86 150.25,233.67 135.26,226.48 122.70,219.37 110.14,212.25 98.14,204.29 86.13,196.33 74.92,187.92 63.70,179.51 53.83,171.08 43.95,162.64 35.16,154.15 26.38,145.66 19.12,137.55 11.86,129.43 6.14,121.70 0.43,113.98 -3.67,106.70 -7.77,99.42 -10.70,92.65 -13.63,85.88 -15.32,79.78 -17.01,73.68 -17.33,68.32 -17.65,62.97 -17.36,58.21 -17.07,53.45 -16.39,49.12 -15.72,44.78 -15.13,40.65 -14.55,36.52 -13.69,33.12 -12.84,29.73 -11.87,26.44 -10.90,23.16 -10.12,20.57 -9.35,17.98 -8.51,15.48 -7.68,12.98 -6.78,10.93 -5.88,8.89 -5.14,7.11 -4.39,5.33 -3.66,3.85 -2.92,2.36 -2.22,0.85 -1.52,-0.65 -1.42,-0.82 -1.32,-1.00 -1.18,-1.14 -1.04,-1.28 -0.87,-1.39 -0.70,-1.50 -0.51,-1.56 -0.32,-1.62 -0.12,-1.64 0.07,-1.66 0.26,-1.62 0.46,-1.59 0.64,-1.51 0.83,-1.43 0.99,-1.31 1.15,-1.19 1.28,-1.04 1.40,-0.88 1.49,-0.70 1.57,-0.52 1.61,-0.32 1.65,-0.13 1.64,0.07 1.63,0.27 1.58,0.46 1.52,0.65 1.52,0.65 L 1.52,0.65 Z"/></g><g transform="translate(16.0858154296875 411.66319274902344) rotate(0 11.791259765625 40.318450927734375)" stroke="none"><path fill="#000000" d="M 2.67,0 Q 2.67,0 2.69,1.09 2.71,2.18 2.50,4.00 2.29,5.82 1.90,7.82 1.51,9.82 1.57,11.05 1.64,12.27 1.31,14.02 0.98,15.77 0.75,16.88 0.53,18.00 0.15,19.22 -0.21,20.44 -0.26,21.59 -0.32,22.75 -1.03,24.58 -1.74,26.42 -1.70,27.83 -1.66,29.24 -1.72,30.43 -1.79,31.61 -2.20,32.71 -2.62,33.82 -2.56,35.46 -2.49,37.10 -2.50,38.23 -2.50,39.36 -2.49,40.68 -2.48,42.00 -2.28,43.67 -2.09,45.33 -1.28,47.30 -0.47,49.27 0.21,50.21 0.90,51.14 2.33,53.08 3.75,55.03 4.51,56.21 5.27,57.39 6.70,58.86 8.13,60.33 9.13,61.54 10.14,62.74 10.97,63.47 11.80,64.19 12.82,65.39 13.83,66.60 14.78,67.67 15.72,68.74 17.42,69.96 19.11,71.19 20.09,72.01 21.07,72.83 22.67,73.99 24.27,75.16 25.44,75.58 26.61,76.00 28.48,76.86 30.34,77.72 30.77,77.94 31.19,78.17 31.52,78.52 31.85,78.87 32.06,79.31 32.26,79.75 32.31,80.22 32.36,80.70 32.26,81.17 32.15,81.64 31.90,82.06 31.65,82.47 31.29,82.78 30.92,83.09 30.47,83.27 30.02,83.45 29.54,83.47 29.06,83.50 28.60,83.37 28.13,83.24 27.73,82.97 27.34,82.70 27.05,82.31 26.75,81.93 26.60,81.47 26.45,81.02 26.45,80.53 26.45,80.05 26.60,79.60 26.76,79.14 27.05,78.76 27.34,78.37 27.74,78.10 28.14,77.83 28.61,77.71 29.07,77.58 29.55,77.61 30.03,77.63 30.48,77.81 30.93,77.99 31.29,78.30 31.66,78.61 31.91,79.03 32.15,79.44 32.26,79.91 32.36,80.38 32.31,80.86 32.25,81.34 32.05,81.78 31.85,82.21 31.52,82.56 31.18,82.91 30.76,83.14 30.33,83.36 29.86,83.44 29.38,83.52 28.91,83.44 28.43,83.36 28.43,83.36 28.43,83.36 25.76,82.15 23.10,80.95 21.19,79.68 19.28,78.41 17.58,77.08 15.88,75.75 14.79,74.99 13.71,74.23 12.69,73.40 11.67,72.56 10.56,71.45 9.45,70.33 8.72,69.49 7.99,68.65 6.79,67.65 5.58,66.64 4.88,65.83 4.17,65.02 2.98,64.04 1.80,63.06 0.92,62.05 0.04,61.04 -0.74,60.00 -1.53,58.96 -2.30,58.02 -3.06,57.09 -4.50,55.28 -5.94,53.47 -6.80,51.24 -7.67,49.01 -8.27,47.81 -8.87,46.62 -9.25,45.49 -9.64,44.36 -9.66,43.18 -9.68,42.00 -9.67,40.68 -9.66,39.36 -9.66,38.21 -9.66,37.07 -9.65,35.91 -9.64,34.76 -9.53,33.40 -9.41,32.04 -9.05,30.48 -8.69,28.92 -8.38,27.42 -8.07,25.92 -7.93,24.77 -7.78,23.63 -7.51,22.49 -7.23,21.35 -7.07,20.19 -6.91,19.03 -6.49,17.91 -6.07,16.78 -5.69,15.71 -5.30,14.64 -4.97,13.35 -4.63,12.05 -4.51,10.64 -4.39,9.24 -3.95,7.69 -3.51,6.14 -3.11,4.16 -2.71,2.18 -2.69,1.09 -2.67,0 -2.63,-0.32 -2.59,-0.64 -2.48,-0.94 -2.36,-1.24 -2.18,-1.50 -2.00,-1.77 -1.76,-1.98 -1.51,-2.20 -1.23,-2.35 -0.94,-2.50 -0.63,-2.57 -0.32,-2.65 0.00,-2.65 0.32,-2.65 0.63,-2.57 0.94,-2.50 1.23,-2.35 1.52,-2.20 1.76,-1.98 2.00,-1.77 2.18,-1.50 2.36,-1.24 2.48,-0.94 2.59,-0.64 2.63,-0.31 2.67,0.00 2.67,0.00 L 2.67,0 Z"/></g><g transform="translate(67.815185546875 388.08067321777344) rotate(0 13.31268310546875 46.02392578125)" stroke="none"><path fill="#000000" d="M 1.54,0.34 Q 1.54,0.34 1.09,2.30 0.64,4.27 -0.00,6.27 -0.65,8.27 -1.38,10.59 -2.10,12.92 -2.63,15.38 -3.15,17.84 -3.83,20.68 -4.51,23.52 -5.01,26.64 -5.51,29.76 -5.94,32.63 -6.38,35.50 -6.57,38.41 -6.75,41.33 -6.83,44.32 -6.91,47.30 -6.95,50.32 -6.98,53.34 -6.78,56.11 -6.58,58.87 -6.07,61.29 -5.56,63.72 -5.12,66.11 -4.68,68.50 -3.87,70.48 -3.06,72.47 -2.07,74.40 -1.08,76.33 0.15,77.95 1.39,79.58 2.63,81.17 3.86,82.76 5.20,83.99 6.55,85.22 7.95,86.11 9.36,86.99 10.67,87.79 11.97,88.58 14.35,89.07 16.73,89.56 17.85,89.63 18.96,89.70 20.08,89.70 21.19,89.70 22.31,89.68 23.43,89.66 24.71,88.91 25.98,88.15 27.21,87.47 28.45,86.78 29.47,85.58 30.49,84.38 31.39,82.87 32.29,81.36 32.52,80.97 32.76,80.59 33.10,80.29 33.45,80.00 33.87,79.83 34.29,79.66 34.74,79.64 35.19,79.62 35.63,79.74 36.07,79.86 36.44,80.11 36.82,80.37 37.09,80.73 37.36,81.09 37.51,81.52 37.65,81.95 37.65,82.40 37.65,82.85 37.51,83.28 37.36,83.71 37.09,84.07 36.82,84.43 36.44,84.69 36.07,84.94 35.63,85.06 35.19,85.18 34.74,85.16 34.29,85.13 33.87,84.97 33.45,84.80 33.10,84.51 32.76,84.21 32.52,83.82 32.29,83.44 32.19,82.99 32.09,82.55 32.14,82.10 32.19,81.65 32.38,81.24 32.57,80.83 32.88,80.50 33.20,80.17 33.60,79.96 34.00,79.75 34.44,79.67 34.89,79.60 35.34,79.67 35.79,79.75 36.19,79.96 36.59,80.17 36.90,80.50 37.21,80.83 37.40,81.24 37.59,81.65 37.64,82.10 37.69,82.55 37.59,82.99 37.49,83.44 37.49,83.44 37.49,83.44 36.45,85.02 35.40,86.61 34.11,88.08 32.82,89.56 30.95,90.80 29.08,92.05 27.66,92.98 26.24,93.91 24.79,94.13 23.34,94.34 22.14,94.26 20.94,94.18 19.68,94.05 18.42,93.92 17.06,93.67 15.69,93.42 14.28,92.98 12.88,92.54 11.49,91.99 10.10,91.43 8.85,90.49 7.60,89.55 6.08,88.43 4.55,87.30 3.11,85.85 1.68,84.41 0.49,82.79 -0.69,81.17 -2.06,79.35 -3.43,77.53 -4.47,75.49 -5.51,73.45 -6.39,71.22 -7.27,68.99 -7.71,66.63 -8.15,64.26 -8.69,61.66 -9.23,59.07 -9.44,56.19 -9.64,53.32 -9.62,50.28 -9.59,47.24 -9.51,44.20 -9.44,41.16 -9.25,38.13 -9.07,35.10 -8.65,32.21 -8.23,29.33 -7.73,26.11 -7.23,22.89 -6.60,20.08 -5.96,17.27 -5.45,14.67 -4.94,12.07 -4.26,9.69 -3.58,7.32 -2.99,5.46 -2.39,3.59 -1.97,1.62 -1.54,-0.34 -1.48,-0.52 -1.41,-0.70 -1.31,-0.86 -1.20,-1.02 -1.06,-1.15 -0.92,-1.28 -0.76,-1.37 -0.59,-1.46 -0.41,-1.51 -0.22,-1.56 -0.03,-1.56 0.15,-1.57 0.34,-1.53 0.52,-1.49 0.69,-1.40 0.86,-1.32 1.01,-1.19 1.15,-1.07 1.27,-0.92 1.38,-0.76 1.45,-0.59 1.52,-0.41 1.55,-0.22 1.58,-0.03 1.56,0.15 1.54,0.34 1.54,0.34 L 1.54,0.34 Z"/></g><g transform="translate(480.88922119140625 148.4520721435547) rotate(0 0.00005000000000165983 0.00005000000000165983)" stroke="none"><path fill="#000000" d="M 1.57,-1.57 Q 1.57,-1.57 1.77,-1.27 1.98,-0.98 2.09,-0.64 2.20,-0.29 2.19,0.05 2.18,0.41 2.05,0.75 1.93,1.09 1.70,1.37 1.48,1.65 1.18,1.84 0.87,2.04 0.52,2.12 0.18,2.21 -0.17,2.18 -0.53,2.15 -0.86,2.01 -1.19,1.87 -1.46,1.63 -1.73,1.39 -1.90,1.07 -2.08,0.76 -2.15,0.41 -2.21,0.05 -2.17,-0.29 -2.12,-0.65 -1.96,-0.97 -1.80,-1.29 -1.54,-1.54 -1.29,-1.80 -0.97,-1.96 -0.65,-2.12 -0.29,-2.17 0.06,-2.21 0.41,-2.15 0.76,-2.08 1.07,-1.90 1.39,-1.73 1.63,-1.46 1.87,-1.19 2.01,-0.86 2.15,-0.53 2.18,-0.17 2.21,0.18 2.12,0.52 2.03,0.87 1.84,1.18 1.65,1.48 1.37,1.70 1.09,1.93 0.75,2.05 0.41,2.18 0.05,2.19 -0.30,2.20 -0.64,2.09 -0.98,1.98 -1.27,1.77 -1.57,1.56 -1.57,1.57 -1.57,1.57 -1.73,1.35 -1.90,1.14 -2.01,0.90 -2.12,0.66 -2.16,0.39 -2.21,0.13 -2.20,-0.13 -2.18,-0.40 -2.10,-0.65 -2.02,-0.91 -1.88,-1.14 -1.74,-1.36 -1.55,-1.55 -1.36,-1.74 -1.14,-1.88 -0.91,-2.02 -0.65,-2.10 -0.40,-2.18 -0.13,-2.20 0.13,-2.21 0.39,-2.16 0.66,-2.12 0.90,-2.01 1.14,-1.90 1.35,-1.73 1.57,-1.57 1.57,-1.57 L 1.57,-1.57 Z"/></g></svg>